<mxfile host="app.diagrams.net" modified="2023-12-05T11:49:12.373Z" agent="Mozilla/5.0 (Windows NT 10.0; Win64; x64) AppleWebKit/537.36 (KHTML, like Gecko) Chrome/119.0.0.0 Safari/537.36 Edg/119.0.0.0" etag="uJ9vrCmlxaAuJslT-Fdk" version="22.1.5" type="device">
  <diagram name="PÃ¡gina-1" id="Jg9AkD8hDJOerWvcBmyc">
    <mxGraphModel dx="1786" dy="1201" grid="0" gridSize="10" guides="1" tooltips="1" connect="1" arrows="1" fold="1" page="0" pageScale="1" pageWidth="827" pageHeight="1169" math="0" shadow="0">
      <root>
        <mxCell id="0" />
        <mxCell id="1" parent="0" />
        <mxCell id="nt72F4oevH4AdYZE7zWD-11" value="" style="rounded=0;whiteSpace=wrap;html=1;fontSize=16;fillColor=none;dashed=1;" vertex="1" parent="1">
          <mxGeometry x="217" y="-3" width="145" height="281" as="geometry" />
        </mxCell>
        <mxCell id="nt72F4oevH4AdYZE7zWD-6" value="" style="rounded=0;whiteSpace=wrap;html=1;fontSize=16;fillColor=none;dashed=1;" vertex="1" parent="1">
          <mxGeometry x="52" y="-3" width="145" height="281" as="geometry" />
        </mxCell>
        <mxCell id="nt72F4oevH4AdYZE7zWD-1" value="POD" style="rounded=0;whiteSpace=wrap;html=1;fontSize=16;" vertex="1" parent="1">
          <mxGeometry x="77" y="18" width="99" height="39" as="geometry" />
        </mxCell>
        <mxCell id="nt72F4oevH4AdYZE7zWD-2" value="ReplicaSet" style="rounded=0;whiteSpace=wrap;html=1;fontSize=16;" vertex="1" parent="1">
          <mxGeometry x="77" y="65" width="99" height="39" as="geometry" />
        </mxCell>
        <mxCell id="nt72F4oevH4AdYZE7zWD-3" value="Deployment" style="rounded=0;whiteSpace=wrap;html=1;fontSize=16;fillColor=#fff2cc;strokeColor=#d6b656;" vertex="1" parent="1">
          <mxGeometry x="77" y="116" width="99" height="39" as="geometry" />
        </mxCell>
        <mxCell id="nt72F4oevH4AdYZE7zWD-4" value="StatefulSet" style="rounded=0;whiteSpace=wrap;html=1;fontSize=16;" vertex="1" parent="1">
          <mxGeometry x="77" y="167" width="99" height="39" as="geometry" />
        </mxCell>
        <mxCell id="nt72F4oevH4AdYZE7zWD-5" value="DaemonSet" style="rounded=0;whiteSpace=wrap;html=1;fontSize=16;" vertex="1" parent="1">
          <mxGeometry x="77" y="220" width="99" height="39" as="geometry" />
        </mxCell>
        <mxCell id="nt72F4oevH4AdYZE7zWD-7" value="NodePort" style="rounded=0;whiteSpace=wrap;html=1;fontSize=16;" vertex="1" parent="1">
          <mxGeometry x="236" y="116" width="99" height="39" as="geometry" />
        </mxCell>
        <mxCell id="nt72F4oevH4AdYZE7zWD-8" value="ClusterIP" style="rounded=0;whiteSpace=wrap;html=1;fontSize=16;" vertex="1" parent="1">
          <mxGeometry x="236" y="65" width="99" height="39" as="geometry" />
        </mxCell>
        <mxCell id="nt72F4oevH4AdYZE7zWD-9" value="Service" style="rounded=0;whiteSpace=wrap;html=1;fontSize=16;fillColor=#fff2cc;strokeColor=#d6b656;" vertex="1" parent="1">
          <mxGeometry x="236" y="14" width="99" height="39" as="geometry" />
        </mxCell>
        <mxCell id="nt72F4oevH4AdYZE7zWD-10" value="LoadBalance" style="rounded=0;whiteSpace=wrap;html=1;fontSize=16;" vertex="1" parent="1">
          <mxGeometry x="236" y="167" width="99" height="39" as="geometry" />
        </mxCell>
        <mxCell id="nt72F4oevH4AdYZE7zWD-14" value="" style="rounded=0;whiteSpace=wrap;html=1;fontSize=16;fillColor=none;dashed=1;" vertex="1" parent="1">
          <mxGeometry x="384" y="-3" width="145" height="281" as="geometry" />
        </mxCell>
        <mxCell id="nt72F4oevH4AdYZE7zWD-15" value="Middleware" style="rounded=0;whiteSpace=wrap;html=1;fontSize=16;" vertex="1" parent="1">
          <mxGeometry x="403" y="116" width="99" height="39" as="geometry" />
        </mxCell>
        <mxCell id="nt72F4oevH4AdYZE7zWD-16" value="Ingressroute" style="rounded=0;whiteSpace=wrap;html=1;fontSize=16;" vertex="1" parent="1">
          <mxGeometry x="403" y="65" width="99" height="39" as="geometry" />
        </mxCell>
        <mxCell id="nt72F4oevH4AdYZE7zWD-17" value="traefik" style="rounded=0;whiteSpace=wrap;html=1;fontSize=16;fillColor=#fff2cc;strokeColor=#d6b656;" vertex="1" parent="1">
          <mxGeometry x="403" y="14" width="99" height="39" as="geometry" />
        </mxCell>
        <mxCell id="nt72F4oevH4AdYZE7zWD-19" value="" style="rounded=0;whiteSpace=wrap;html=1;fontSize=16;fillColor=none;dashed=1;" vertex="1" parent="1">
          <mxGeometry x="-112" y="-1" width="145" height="281" as="geometry" />
        </mxCell>
        <mxCell id="nt72F4oevH4AdYZE7zWD-20" value="limits" style="rounded=0;whiteSpace=wrap;html=1;fontSize=16;" vertex="1" parent="1">
          <mxGeometry x="-93" y="118" width="99" height="39" as="geometry" />
        </mxCell>
        <mxCell id="nt72F4oevH4AdYZE7zWD-21" value="requests" style="rounded=0;whiteSpace=wrap;html=1;fontSize=16;" vertex="1" parent="1">
          <mxGeometry x="-93" y="67" width="99" height="39" as="geometry" />
        </mxCell>
        <mxCell id="nt72F4oevH4AdYZE7zWD-22" value="resources" style="rounded=0;whiteSpace=wrap;html=1;fontSize=16;fillColor=#fff2cc;strokeColor=#d6b656;" vertex="1" parent="1">
          <mxGeometry x="-93" y="16" width="99" height="39" as="geometry" />
        </mxCell>
        <mxCell id="nt72F4oevH4AdYZE7zWD-23" value="LimitRange" style="rounded=0;whiteSpace=wrap;html=1;fontSize=16;" vertex="1" parent="1">
          <mxGeometry x="-93" y="169" width="99" height="39" as="geometry" />
        </mxCell>
        <mxCell id="nt72F4oevH4AdYZE7zWD-24" value="HPA" style="rounded=0;whiteSpace=wrap;html=1;fontSize=16;" vertex="1" parent="1">
          <mxGeometry x="-93" y="220" width="99" height="39" as="geometry" />
        </mxCell>
        <mxCell id="nt72F4oevH4AdYZE7zWD-25" value="" style="rounded=0;whiteSpace=wrap;html=1;fontSize=16;fillColor=none;dashed=1;" vertex="1" parent="1">
          <mxGeometry x="49" y="298" width="145" height="281" as="geometry" />
        </mxCell>
        <mxCell id="nt72F4oevH4AdYZE7zWD-26" value="persistent volume" style="rounded=0;whiteSpace=wrap;html=1;fontSize=16;" vertex="1" parent="1">
          <mxGeometry x="68" y="417" width="99" height="39" as="geometry" />
        </mxCell>
        <mxCell id="nt72F4oevH4AdYZE7zWD-27" value="storage class" style="rounded=0;whiteSpace=wrap;html=1;fontSize=16;" vertex="1" parent="1">
          <mxGeometry x="68" y="366" width="99" height="39" as="geometry" />
        </mxCell>
        <mxCell id="nt72F4oevH4AdYZE7zWD-28" value="NFS" style="rounded=0;whiteSpace=wrap;html=1;fontSize=16;fillColor=#fff2cc;strokeColor=#d6b656;" vertex="1" parent="1">
          <mxGeometry x="68" y="315" width="99" height="39" as="geometry" />
        </mxCell>
        <mxCell id="nt72F4oevH4AdYZE7zWD-29" value="persistent volumeClaim" style="rounded=0;whiteSpace=wrap;html=1;fontSize=16;" vertex="1" parent="1">
          <mxGeometry x="68" y="468" width="99" height="39" as="geometry" />
        </mxCell>
        <mxCell id="nt72F4oevH4AdYZE7zWD-32" value="" style="rounded=0;whiteSpace=wrap;html=1;fontSize=16;fillColor=none;dashed=1;" vertex="1" parent="1">
          <mxGeometry x="52" y="-304" width="145" height="281" as="geometry" />
        </mxCell>
        <mxCell id="nt72F4oevH4AdYZE7zWD-33" value="configMap" style="rounded=0;whiteSpace=wrap;html=1;fontSize=16;" vertex="1" parent="1">
          <mxGeometry x="77" y="-283" width="99" height="39" as="geometry" />
        </mxCell>
        <mxCell id="nt72F4oevH4AdYZE7zWD-34" value="secrets" style="rounded=0;whiteSpace=wrap;html=1;fontSize=16;fillColor=#fff2cc;strokeColor=#d6b656;" vertex="1" parent="1">
          <mxGeometry x="77" y="-236" width="99" height="39" as="geometry" />
        </mxCell>
        <mxCell id="nt72F4oevH4AdYZE7zWD-35" value="service&lt;br&gt;account" style="rounded=0;whiteSpace=wrap;html=1;fontSize=16;fillColor=#fff2cc;strokeColor=#d6b656;" vertex="1" parent="1">
          <mxGeometry x="77" y="-185" width="99" height="39" as="geometry" />
        </mxCell>
        <mxCell id="nt72F4oevH4AdYZE7zWD-36" value="role" style="rounded=0;whiteSpace=wrap;html=1;fontSize=16;" vertex="1" parent="1">
          <mxGeometry x="77" y="-134" width="99" height="39" as="geometry" />
        </mxCell>
        <mxCell id="nt72F4oevH4AdYZE7zWD-41" value="rolebinding" style="rounded=0;whiteSpace=wrap;html=1;fontSize=16;" vertex="1" parent="1">
          <mxGeometry x="77" y="-80" width="99" height="39" as="geometry" />
        </mxCell>
        <mxCell id="nt72F4oevH4AdYZE7zWD-42" value="" style="rounded=0;whiteSpace=wrap;html=1;fontSize=16;fillColor=none;dashed=1;" vertex="1" parent="1">
          <mxGeometry x="-276" y="-1" width="145" height="281" as="geometry" />
        </mxCell>
        <mxCell id="nt72F4oevH4AdYZE7zWD-43" value="readiness" style="rounded=0;whiteSpace=wrap;html=1;fontSize=16;" vertex="1" parent="1">
          <mxGeometry x="-257" y="118" width="99" height="39" as="geometry" />
        </mxCell>
        <mxCell id="nt72F4oevH4AdYZE7zWD-44" value="startup" style="rounded=0;whiteSpace=wrap;html=1;fontSize=16;" vertex="1" parent="1">
          <mxGeometry x="-257" y="67" width="99" height="39" as="geometry" />
        </mxCell>
        <mxCell id="nt72F4oevH4AdYZE7zWD-45" value="self healing" style="rounded=0;whiteSpace=wrap;html=1;fontSize=16;fillColor=#fff2cc;strokeColor=#d6b656;" vertex="1" parent="1">
          <mxGeometry x="-257" y="16" width="99" height="39" as="geometry" />
        </mxCell>
        <mxCell id="nt72F4oevH4AdYZE7zWD-46" value="liveness" style="rounded=0;whiteSpace=wrap;html=1;fontSize=16;" vertex="1" parent="1">
          <mxGeometry x="-257" y="169" width="99" height="39" as="geometry" />
        </mxCell>
      </root>
    </mxGraphModel>
  </diagram>
</mxfile>
